<?xml version="1.0" standalone="no"?>
<!DOCTYPE svg PUBLIC "-//W3C//DTD SVG 20010904//EN"
 "http://www.w3.org/TR/2001/REC-SVG-20010904/DTD/svg10.dtd">
<svg version="1.0" xmlns="http://www.w3.org/2000/svg"
 width="500.000000pt" height="500.000000pt" viewBox="0 0 500.000000 500.000000"
 preserveAspectRatio="xMidYMid meet">
<metadata>
Created by potrace 1.14, written by Peter Selinger 2001-2017
</metadata>
<g transform="translate(0.000000,500.000000) scale(0.100000,-0.100000)"
fill="#000000" stroke="none">
<path d="M2360 4993 c-521 -37 -994 -222 -1395 -546 -97 -78 -284 -266 -360
-362 -670 -842 -746 -2005 -191 -2919 361 -593 938 -999 1614 -1135 151 -31
155 -31 470 -31 329 0 369 4 567 50 272 63 599 213 839 384 471 337 807 821
961 1381 145 529 114 1098 -86 1606 -159 404 -419 760 -756 1036 -164 135
-439 294 -653 378 -301 118 -699 180 -1010 158z m-705 -1663 c8 -24 -1 -40
-21 -40 -16 0 -17 5 -8 38 8 27 21 28 29 2z m23 -5 c-3 -3 -9 2 -12 12 -6 14
-5 15 5 6 7 -7 10 -15 7 -18z m-71 -10 c-4 -8 -11 -15 -17 -15 -6 0 -6 7 2 20
14 22 24 19 15 -5z m448 14 c-4 -6 4 -9 22 -7 18 2 27 -1 26 -9 -2 -7 9 -16
25 -19 36 -9 52 -22 45 -40 -3 -8 1 -14 11 -14 18 0 21 -21 7 -48 -5 -9 -19
-38 -32 -64 -13 -26 -32 -49 -42 -52 -11 -2 -17 -11 -15 -18 6 -18 -33 -47
-74 -54 -118 -22 -228 -66 -294 -119 -46 -38 -106 -148 -99 -183 4 -23 -12
-44 -47 -63 -25 -13 -36 -3 -20 19 39 55 72 120 72 143 0 14 -20 67 -45 117
-25 50 -45 93 -45 95 0 8 99 57 114 57 47 0 173 82 285 185 66 62 122 101 106
74z m-492 -209 c4 -16 0 -20 -19 -20 -22 0 -23 2 -12 20 7 11 16 20 19 20 4 0
9 -9 12 -20z m-33 -60 c-8 -5 -22 -9 -30 -9 -10 0 -8 3 5 9 27 12 43 12 25 0z
m1187 -22 c-3 -8 -6 -5 -6 6 -1 11 2 17 5 13 3 -3 4 -12 1 -19z m-591 -92 c3
-8 4 -27 2 -43 l-3 -28 -23 32 c-13 18 -20 37 -17 43 9 15 35 12 41 -4z m101
-85 c21 -33 49 -79 63 -102 14 -23 36 -55 48 -71 14 -16 24 -42 25 -62 1 -26
6 -36 21 -41 19 -6 19 -7 -6 -17 -16 -5 -28 -15 -28 -22 0 -7 -13 -27 -30 -44
-29 -31 -40 -72 -19 -72 5 0 7 -4 4 -10 -3 -5 -14 -10 -24 -10 -32 0 -67 -63
-66 -120 0 -21 5 -25 30 -26 17 -1 40 5 52 12 12 8 27 14 33 14 15 0 50 38 50
54 0 16 73 56 156 86 32 11 59 20 60 20 9 0 -24 -88 -37 -100 -3 -3 -18 -22
-34 -43 l-29 -39 25 -19 c13 -10 31 -16 39 -12 36 15 135 2 158 -20 14 -15 11
-20 -32 -64 -26 -26 -50 -61 -53 -76 -16 -76 -117 -71 -300 14 -34 16 -71 29
-82 29 -13 0 -18 5 -15 14 8 21 -65 83 -112 95 -24 6 -46 15 -49 21 -3 5 -14
10 -25 10 -10 0 -21 7 -24 16 -3 9 -12 14 -19 11 -23 -8 -114 75 -179 164
l-26 37 81 -5 c75 -4 87 -2 139 24 62 31 113 92 124 151 3 17 11 32 16 32 6 0
7 40 2 104 -9 147 3 160 63 67z m-395 14 c5 -24 -18 -72 -48 -102 -8 -8 -14
-23 -14 -34 0 -42 -90 -46 -106 -5 -11 29 45 104 106 143 45 29 57 29 62 -2z
m272 -37 c49 -97 29 -220 -45 -282 -71 -60 -153 -72 -239 -35 -39 17 -55 32
-84 79 -20 32 -36 62 -36 67 0 20 120 54 210 58 91 4 93 5 111 35 10 16 22 30
26 30 5 0 13 11 20 25 6 14 7 25 2 25 -5 0 -8 11 -7 25 3 37 13 31 42 -27z
m-114 15 c0 -12 -43 -53 -57 -53 -13 0 -18 41 -6 53 8 9 63 9 63 0z m-150 -80
c0 -14 -19 -38 -25 -32 -8 8 5 39 16 39 5 0 9 -3 9 -7z m-156 -222 c34 -37 11
-32 -25 5 -21 23 -26 33 -14 26 11 -5 29 -20 39 -31z m759 25 c7 -18 -1 -26
-18 -19 -8 2 -11 11 -8 19 7 18 19 18 26 0z m24 -63 c-4 -21 -2 -42 4 -50 9
-10 7 -14 -7 -19 -11 -4 -28 -15 -39 -24 -11 -9 -28 -20 -39 -24 -15 -5 -17
-2 -13 14 7 26 -10 26 -18 0 -3 -11 -11 -20 -16 -20 -6 0 -7 -4 -4 -10 8 -14
-8 -13 -22 1 -14 14 59 88 111 113 23 11 36 24 36 36 0 11 3 20 6 20 4 0 4
-17 1 -37z m35 -614 c9 -5 45 -12 80 -15 39 -4 68 -12 76 -22 7 -10 12 -11 12
-4 0 20 19 13 54 -20 31 -30 33 -35 20 -52 -8 -11 -14 -32 -14 -47 0 -16 -6
-32 -12 -36 -16 -10 -78 -129 -78 -149 0 -8 -13 -17 -30 -21 -17 -3 -33 -9
-36 -14 -6 -10 -31 -1 -66 24 -14 11 -31 16 -37 13 -7 -4 -11 1 -11 13 0 12
-4 21 -9 21 -15 0 -24 40 -25 110 -1 39 -8 78 -18 97 -10 21 -13 35 -6 39 6 4
6 10 -1 17 -6 6 -11 24 -11 40 0 28 0 28 48 21 26 -3 55 -11 64 -15z m907
-1221 c-1 -18 -3 -25 -6 -15 -2 9 -9 17 -15 17 -6 0 -6 6 2 15 18 21 20 19 19
-17z m-190 -275 c49 -71 99 -140 110 -155 25 -31 25 -34 7 -41 -10 -4 -13 -1
-10 7 3 8 -5 21 -18 30 -13 9 -22 19 -20 21 6 13 0 25 -13 25 -8 0 -14 6 -12
13 1 6 -3 11 -10 10 -7 -2 -10 4 -7 12 4 8 1 15 -5 15 -6 0 -11 5 -11 10 0 14
-50 89 -77 116 -13 13 -23 28 -23 35 0 6 -7 8 -16 5 -14 -5 -15 -4 -4 9 7 8
14 15 16 15 2 0 44 -57 93 -127z m-154 -31 c97 -137 157 -226 161 -236 2 -6
-10 -19 -27 -29 -26 -15 -30 -15 -25 -2 8 21 -23 55 -43 47 -13 -5 -14 -3 -4
9 9 11 10 25 3 47 -10 35 -10 36 -11 55 0 6 -4 2 -9 -10 -12 -29 -25 -29 -44
-1 -20 28 -20 39 -1 32 23 -9 18 1 -21 42 -32 34 -33 39 -17 45 15 6 14 8 -7
10 -14 1 -29 3 -35 4 -5 2 -14 3 -20 4 -5 1 -3 6 5 11 12 8 12 10 1 10 -11 0
-10 5 4 20 10 11 23 19 29 17 6 -2 34 -36 61 -75z m-25 -68 c0 -3 -7 -1 -15 6
-8 7 -15 17 -15 22 0 5 7 3 15 -6 8 -8 15 -18 15 -22z m-14 -60 c18 -14 18
-14 -6 -3 -31 14 -36 19 -24 19 6 0 19 -7 30 -16z m134 -134 c0 -5 -2 -10 -4
-10 -3 0 -8 5 -11 10 -3 6 -1 10 4 10 6 0 11 -4 11 -10z"/>
<path d="M1605 2680 c-3 -6 1 -7 9 -4 18 7 21 14 7 14 -6 0 -13 -4 -16 -10z"/>
<path d="M2140 2572 c0 -5 -10 -14 -22 -20 -20 -10 -19 -11 12 -6 40 6 44 9
35 23 -7 13 -25 15 -25 3z"/>
<path d="M2254 2555 c-18 -15 -18 -15 10 -13 16 2 31 9 34 16 5 17 -20 15 -44
-3z"/>
<path d="M3080 250 c0 -5 5 -10 11 -10 5 0 7 5 4 10 -3 6 -8 10 -11 10 -2 0
-4 -4 -4 -10z"/>
</g>
</svg>
